<?xml version="1.0" encoding="UTF-8"?><svg id="Layer_2" xmlns="http://www.w3.org/2000/svg" viewBox="0 0 107.96 107.96"><defs><style>.cls-1{fill:#e54c3c;}.cls-2{fill:#ac1e5c;}</style></defs><g id="Layer_1-2"><g><g><path class="cls-2" d="M53.98,107.96C24.22,107.96,0,83.75,0,53.98H5.18c0,26.91,21.89,48.81,48.81,48.81v5.18Z"/><path class="cls-1" d="M53.98,107.96v-5.18c26.91,0,48.81-21.89,48.81-48.81h5.18c0,29.77-24.22,53.98-53.98,53.98Z"/><path class="cls-2" d="M107.96,53.98h-5.18c0-26.91-21.89-48.81-48.81-48.81V0c29.77,0,53.98,24.22,53.98,53.98Z"/><path class="cls-1" d="M5.18,53.98H0C0,24.22,24.22,0,53.98,0V5.18C27.07,5.18,5.18,27.07,5.18,53.98Z"/></g><g><path class="cls-2" d="M64.94,62.16c3.25-3.34,6.21-7.2,7.29-11.73,1.08-4.53-.13-9.85-3.91-12.58,0,1.76,.02,3.52-.24,5.26-.73,4.93-3.54,9.33-6.82,13.09-3.28,3.77-7.07,7.06-10.31,10.86-2.16,2.53-4.11,5.38-4.81,8.63-.18,.83-.26,1.67-.27,2.52-1.36-1.15-2.54-2.55-3.63-3.97-2.28-2.98-4.34-6.25-5.07-9.92-1.15-5.73,1.1-11.62,4.09-16.64,3.65-6.13,8.45-11.53,12.14-17.64,1.21-2,2.32-4.17,2.37-6.5,.07-3.09-1.71-5.89-3.43-8.46-.6,3.62-2.83,7.83-3.58,9.16-1.6,2.83-3.5,5.54-5.52,8.08-6.8,8.55-13.72,18.13-13.02,29.56,.55,9.02,5.36,17.69,13.15,22.44,2.02,1.23,4.21,2.17,6.49,2.81,.93,.37,1.92,.6,2.92,.66,.04,0,.07,.01,.11,.02,0,0,0,0,0-.01,.38,.02,.77,.02,1.15-.01-1.21-3-2.45-6.19-1.92-9.38,.38-2.31,1.65-4.38,3.1-6.23,2.15-2.74,4.72-5.12,7.24-7.54,.85-.81,1.68-1.63,2.5-2.47Z"/><path class="cls-2" d="M75.32,58.41c-.58,3.1-2.5,6.2-4.7,8.42-1.31,1.31-2.62,2.62-3.92,3.93-1.99,1.99-4.37,4.03-5.29,6.78-.57,1.71-.49,3.56-.03,5.28,.22,.82,.53,1.61,.87,2.39,.19,.43,.39,.86,.59,1.28,.12,.26,.69,1.05,.64,1.32,.41-2.16,1.25-4.36,2.59-6.12,.48-.63,1.04-1.2,1.59-1.77,1.07-1.1,2.13-2.2,3.23-3.26,2.48-2.41,5.91-5.1,6.71-8.65,.05-.23,.09-.46,.12-.68,.06-.38,.09-.76,.09-1.13,.03-2.65-1.14-5.08-2.48-7.79Z"/></g></g></g></svg>